<?xml version="1.0" encoding="UTF-8"?>
<svg xmlns="http://www.w3.org/2000/svg" xmlns:xlink="http://www.w3.org/1999/xlink" viewBox="0 0 273.99 65.25">
<defs><linearGradient id="kg" x1="98.79" y1="53.68" x2="246.36" y2="72.3" gradientUnits="userSpaceOnUse">
<stop offset=".02" stop-color="#b08572"/><stop offset=".11" stop-color="#a47b69"/><stop offset=".48" stop-color="#785748"/><stop offset=".63" stop-color="#705041"/><stop offset=".86" stop-color="#5b3d2f"/><stop offset="1" stop-color="#4a2f21"/></linearGradient>
<linearGradient id="kg2" x1="3.84" y1="33.33" x2="72.31" y2="8.04" xlink:href="#kg"/>
<linearGradient id="kg3" x1="6.48" y1="40.47" x2="74.95" y2="15.19" xlink:href="#kg"/></defs>
<rect fill="#ffffff" y="0" width="64.98" height="13"/>
<polygon fill="#fff"  points="32.49 13 32.49 13 32.49 13 32.49 13 32.49 13 0 19.49 0 25.99 32.49 19.49 64.98 25.99 64.98 19.49 32.49 13"/>
<polygon fill="#fff"  points="32.49 22.74 32.49 22.74 32.49 22.74 32.49 22.74 0 29.24 0 32.49 32.49 25.99 64.98 32.49 64.98 29.24 32.49 22.74 32.49 22.74"/>
<rect fill="#ffffff" x="0" y="32.49" width="64.98" height="32.49"/><path fill="#ffffff" d="M100.37,29.24h-.63l10.9-16.24h-3.91l-10.14,15.11c-.48.71-1.27,1.13-2.13,1.13h-3.5V13h-6.5v32.49h6.5v-13h3.71c2.66,0,5.06,1.61,6.07,4.07l3.65,8.92h7.02l-4.98-12.17c-1.01-2.46-3.4-4.07-6.07-4.07Z"/><path fill="#ffffff" d="M133.56,13h-5.6l-13.29,32.49h3.51l3.98-9.75h0s13.68,0,13.68,0h0s3.99,9.75,3.99,9.75h7.02l-13.29-32.49ZM129,19.02l5.51,13.47h-11.02l5.51-13.47Z"/><polygon fill="#ffffff" points="161.04 39.75 150.1 13 143.08 13 156.36 45.49 162.2 45.49 162.79 44.04 175.49 13 171.98 13 161.04 39.75"/><path fill="#ffffff" d="M194.64,29.24h-.63l10.9-16.24h-3.91l-10.14,15.11c-.48.71-1.27,1.13-2.13,1.13h-3.5V13h-6.5v32.49h6.5v-13h3.71c2.66,0,5.06,1.61,6.07,4.07l3.65,8.92h7.02l-4.98-12.17c-1.01-2.46-3.4-4.07-6.07-4.07Z"/><path fill="#ffffff" d="M227.82,13h-5.6l-.71,1.73-12.58,30.76h3.51l3.98-9.75h0s13.68,0,13.68,0h0s3.99,9.75,3.99,9.75h7.02l-13.29-32.49ZM223.26,19.02l5.51,13.47h-11.02l5.51-13.47Z"/><polygon fill="#ffffff" points="273.99 13 244.93 13 244.93 16.24 263.98 16.24 244.36 45.49 273.41 45.49 273.41 42.24 254.36 42.24 273.99 13"/><path fill="#fff"  d="M139.27,62.17l.08-.25h-1.63l-.05.12s-.02.06-.04.09l-2.38-2.31c-.28-.27-.47-.5-.6-.7-.12-.19-.18-.39-.18-.62,0-.32.12-.57.38-.77.27-.21.59-.32.98-.32.36,0,.68.1.96.29.12.08.23.18.32.29l.06.07h1.74l-.11-.27c-.24-.58-.64-1.05-1.18-1.38-.54-.33-1.15-.5-1.81-.5-.81,0-1.51.24-2.08.71-.59.48-.89,1.11-.89,1.88,0,.54.17,1.04.5,1.49-.49.26-.87.59-1.14,1-.31.47-.47.99-.47,1.55,0,.82.32,1.48.95,1.97.62.47,1.43.71,2.41.71,1.07,0,1.97-.28,2.68-.83l.62.6h2.17l-1.78-1.73c.21-.34.38-.71.5-1.09ZM135.1,63.74c-.56,0-1-.12-1.31-.35-.29-.22-.44-.53-.44-.92,0-.28.09-.56.27-.82.16-.24.41-.42.74-.57l2.29,2.24c-.43.28-.95.43-1.56.43ZM167.46,54.06h2.02v10.92h-1.77v-8.24l-4.4,6.67h-.23l-4.4-6.66v8.23h-1.79v-10.92h2.02l4.29,6.48,4.27-6.48ZM180.87,60.03c.52-.65.78-1.38.78-2.17,0-1.05-.41-1.95-1.23-2.69-.82-.74-1.81-1.11-2.96-1.11h-5.38v10.92h1.79v-3.36h3.17l2.16,3.36h1.97l-2.31-3.57c.82-.27,1.49-.73,2.01-1.38ZM179.15,59.48c-.47.45-1.03.67-1.7.67h-3.6v-4.57h3.6c.67,0,1.23.22,1.7.67.47.44.7.98.7,1.61s-.23,1.17-.7,1.62ZM125.21,54.09h1.77v7.33c0,1.22-.43,2.17-1.28,2.83-.85.66-1.93.99-3.24.99-.97,0-1.83-.19-2.58-.56s-1.29-.92-1.63-1.63l1.52-.81c.4.94,1.29,1.4,2.69,1.4.86,0,1.53-.19,2.02-.56.49-.37.73-.93.73-1.66v-7.33ZM100.89,54.06l-4.47,10.92h1.89l1.34-3.36h4.49l1.35,3.36h1.89l-4.47-10.92h-2.02ZM100.24,60.15l1.65-4.15,1.66,4.15h-3.31ZM92.8,54.06h1.77v10.92h-1.77v-3.36h-6.53v3.36h-1.79v-10.92h1.79v6.1h6.53v-6.1ZM115.47,54.09h1.77v7.33c0,1.22-.43,2.17-1.28,2.83-.85.66-1.93.99-3.24.99-.97,0-1.83-.19-2.58-.56-.74-.37-1.29-.92-1.63-1.63l1.52-.81c.4.94,1.29,1.4,2.69,1.4.86,0,1.53-.19,2.02-.56.49-.37.73-.93.73-1.66v-7.33ZM152.68,54.06h1.77v6.81c0,1.32-.47,2.37-1.4,3.16-.94.79-2.15,1.18-3.63,1.18s-2.7-.39-3.64-1.18c-.94-.79-1.41-1.84-1.41-3.16v-6.81h1.79v6.74c0,.86.28,1.55.85,2.06.56.51,1.37.76,2.42.76s1.86-.25,2.42-.76c.56-.51.84-1.19.84-2.06v-6.74ZM187.25,54.06l-4.47,10.92h1.89l1.34-3.36h4.49l1.35,3.36h1.89l-4.47-10.92h-2.02ZM186.6,60.15l1.65-4.15,1.66,4.15h-3.31ZM203.91,54.06h1.77v10.92h-1.77v-3.36h-6.53v3.36h-1.79v-10.92h1.79v6.1h6.53v-6.1Z"/>
</svg>